<svg xmlns="http://www.w3.org/2000/svg" width="19.167" height="23.667" viewBox="0 0 19.167 23.667">
  <path id="Icon_awesome-lock" data-name="Icon awesome-lock" d="M17.113,10.354H16.086V7.026A6.788,6.788,0,0,0,9.583,0a6.788,6.788,0,0,0-6.5,7.026v3.328H2.054A2.142,2.142,0,0,0,0,12.573v8.875a2.142,2.142,0,0,0,2.054,2.219h15.06a2.142,2.142,0,0,0,2.054-2.219V12.573A2.142,2.142,0,0,0,17.113,10.354Zm-4.449,0H6.5V7.026A3.215,3.215,0,0,1,9.583,3.7a3.215,3.215,0,0,1,3.08,3.328Z" fill="#1d468a" opacity="0.52"/>
</svg>
