<svg xmlns="http://www.w3.org/2000/svg" width="67" height="67" viewBox="0 0 67 67">
  <g id="Group_24" data-name="Group 24" transform="translate(-181 -594)">
    <circle id="Ellipse_9" data-name="Ellipse 9" cx="33.5" cy="33.5" r="33.5" transform="translate(181 594)" fill="#fff" style="mix-blend-mode: color-burn;isolation: isolate"/>
    <path id="Icon_metro-qrcode" data-name="Icon metro-qrcode" d="M13.411,4.024H4.739v8.384h8.672Zm2.168-2.1V14.5H2.571V1.928ZM6.907,6.12h4.336v4.192H6.907Zm28.185-2.1H26.42v8.384h8.672V4.024Zm2.168-2.1V14.5H24.252V1.928H37.26ZM28.588,6.12h4.336v4.192H28.588ZM13.411,24.983H4.739v8.384h8.672Zm2.168-2.1V35.463H2.571V22.887ZM6.907,27.079h4.336v4.192H6.907ZM17.747,1.928h2.168v2.1H17.747Zm2.168,2.1h2.168v2.1H19.915Zm-2.168,2.1h2.168v2.1H17.747Zm2.168,2.1h2.168v2.1H19.915Zm-2.168,2.1h2.168v2.1H17.747Zm2.168,2.1h2.168v2.1H19.915Zm-2.168,2.1h2.168v2.1H17.747Zm0,4.192h2.168v2.1H17.747Zm2.168,2.1h2.168v2.1H19.915Zm-2.168,2.1h2.168v2.1H17.747Zm2.168,2.1h2.168v2.1H19.915Zm-2.168,2.1h2.168v2.1H17.747Zm2.168,2.1h2.168v2.1H19.915Zm-2.168,2.1h2.168v2.1H17.747Zm2.168,2.1h2.168v2.1H19.915ZM35.092,18.7H37.26v2.1H35.092Zm-30.353,0H6.907v2.1H4.739Zm2.168-2.1H9.075v2.1H6.907Zm-4.336,0H4.739v2.1H2.571Zm8.672,0h2.168v2.1H11.243Zm2.168,2.1h2.168v2.1H13.411Zm2.168-2.1h2.168v2.1H15.579Zm6.5,2.1h2.168v2.1H22.084Zm2.168-2.1H26.42v2.1H24.252Zm2.168,2.1h2.168v2.1H26.42Zm2.168-2.1h2.168v2.1H28.588Zm2.168,2.1h2.168v2.1H30.756Zm2.168-2.1h2.168v2.1H32.924Zm2.168,6.288H37.26v2.1H35.092Zm-13.009,0h2.168v2.1H22.084Zm2.168-2.1H26.42v2.1H24.252Zm2.168,2.1h2.168v2.1H26.42Zm4.336,0h2.168v2.1H30.756Zm2.168-2.1h2.168v2.1H32.924Zm2.168,6.288H37.26v2.1H35.092Zm-13.009,0h2.168v2.1H22.084Zm2.168-2.1H26.42v2.1H24.252Zm4.336,0h2.168v2.1H28.588Zm2.168,2.1h2.168v2.1H30.756Zm2.168-2.1h2.168v2.1H32.924Zm2.168,6.288H37.26v2.1H35.092Zm-10.84-2.1H26.42v2.1H24.252Zm2.168,2.1h2.168v2.1H26.42Zm2.168-2.1h2.168v2.1H28.588Zm2.168,2.1h2.168v2.1H30.756Zm-6.5,2.1H26.42v2.1H24.252Zm4.336,0h2.168v2.1H28.588Zm4.336,0h2.168v2.1H32.924Z" transform="translate(194.429 608.87)" fill="#1d468a"/>
  </g>
</svg>
