<svg xmlns="http://www.w3.org/2000/svg" width="34.272" height="33.125" viewBox="0 0 34.272 33.125">
  <path id="Icon_material-search" data-name="Icon material-search" d="M28.994,25.333H27.446l-.549-.511a12.019,12.019,0,0,0,3.076-8.011A12.529,12.529,0,0,0,17.237,4.5,12.529,12.529,0,0,0,4.5,16.811,12.529,12.529,0,0,0,17.237,29.121a12.94,12.94,0,0,0,8.289-2.973l.529.53v1.5l9.8,9.451,2.92-2.822Zm-11.757,0a8.662,8.662,0,0,1-8.818-8.523,8.662,8.662,0,0,1,8.818-8.523,8.662,8.662,0,0,1,8.818,8.523A8.662,8.662,0,0,1,17.237,25.333Z" transform="translate(-4.5 -4.5)" fill="#1d468a" opacity="0.55"/>
</svg>
