<svg xmlns="http://www.w3.org/2000/svg" width="55" height="55" viewBox="0 0 55 55">
  <g id="Group_23" data-name="Group 23" transform="translate(-279 -722)">
    <circle id="Ellipse_13" data-name="Ellipse 13" cx="27.5" cy="27.5" r="27.5" transform="translate(279 722)" fill="#00acee"/>
    <path id="Icon_awesome-twitter" data-name="Icon awesome-twitter" d="M28.711,10.087c.02.294.02.589.02.883,0,8.976-6.6,19.319-18.66,19.319A18.077,18.077,0,0,1,0,27.241a13.109,13.109,0,0,0,1.584.084,12.852,12.852,0,0,0,8.142-2.9,6.6,6.6,0,0,1-6.132-4.709,8,8,0,0,0,1.239.105,6.713,6.713,0,0,0,1.726-.231A6.737,6.737,0,0,1,1.3,12.925v-.084a6.436,6.436,0,0,0,2.964.862A6.851,6.851,0,0,1,1.34,8.048a6.922,6.922,0,0,1,.893-3.427,18.44,18.44,0,0,0,13.523,7.106,7.926,7.926,0,0,1-.162-1.556,6.674,6.674,0,0,1,6.558-6.79,6.441,6.441,0,0,1,4.792,2.144,12.647,12.647,0,0,0,4.162-1.64,6.735,6.735,0,0,1-2.883,3.742A12.8,12.8,0,0,0,32,6.576a14.38,14.38,0,0,1-3.289,3.511Z" transform="translate(293 733.256)" fill="#fff"/>
  </g>
</svg>
