<svg xmlns="http://www.w3.org/2000/svg" width="20.667" height="23.667" viewBox="0 0 20.667 23.667">
  <path id="Icon_awesome-user-alt" data-name="Icon awesome-user-alt" d="M10.333,13.313c3.209,0,5.812-2.981,5.812-6.656S13.542,0,10.333,0,4.521,2.981,4.521,6.656,7.124,13.313,10.333,13.313ZM15.5,14.792H13.276a6.224,6.224,0,0,1-5.885,0H5.167C2.313,14.792,0,17.44,0,20.708v.74a2.093,2.093,0,0,0,1.937,2.219H18.729a2.093,2.093,0,0,0,1.937-2.219v-.74C20.667,17.44,18.354,14.792,15.5,14.792Z" fill="#1d468a" opacity="0.52"/>
</svg>
